# Blender v3.4.1 OBJ File: ''
# www.blender.org
mtllib t2.mtl
o Cylinder_Cylinder.003
v 0.000000 -1.000000 -1.000000
v 0.000000 1.000000 -1.000000
v 0.195090 -1.000000 -0.980785
v 0.195090 1.000000 -0.980785
v 0.382683 -1.000000 -0.923880
v 0.382683 1.000000 -0.923880
v 0.555570 -1.000000 -0.831470
v 0.555570 1.000000 -0.831470
v 0.707107 -1.000000 -0.707107
v 0.707107 1.000000 -0.707107
v 0.831470 -1.000000 -0.555570
v 0.831470 1.000000 -0.555570
v 0.923880 -1.000000 -0.382683
v 0.923880 1.000000 -0.382683
v 0.980785 -1.000000 -0.195090
v 0.980785 1.000000 -0.195090
v 1.000000 -1.000000 0.000000
v 1.000000 1.000000 0.000000
v 0.980785 -1.000000 0.195090
v 0.980785 1.000000 0.195090
v 0.923880 -1.000000 0.382683
v 0.923880 1.000000 0.382683
v 0.831470 -1.000000 0.555570
v 0.831470 1.000000 0.555570
v 0.707107 -1.000000 0.707107
v 0.707107 1.000000 0.707107
v 0.555570 -1.000000 0.831470
v 0.555570 1.000000 0.831470
v 0.382683 -1.000000 0.923880
v 0.382683 1.000000 0.923880
v 0.195090 -1.000000 0.980785
v 0.195090 1.000000 0.980785
v 0.000000 -1.000000 1.000000
v 0.000000 1.000000 1.000000
v -0.195090 -1.000000 0.980785
v -0.195090 1.000000 0.980785
v -0.382683 -1.000000 0.923880
v -0.382683 1.000000 0.923880
v -0.555570 -1.000000 0.831470
v -0.555570 1.000000 0.831470
v -0.707107 -1.000000 0.707107
v -0.707107 1.000000 0.707107
v -0.831470 -1.000000 0.555570
v -0.831470 1.000000 0.555570
v -0.923880 -1.000000 0.382683
v -0.923880 1.000000 0.382683
v -0.980785 -1.000000 0.195090
v -0.980785 1.000000 0.195090
v -1.000000 -1.000000 0.000000
v -1.000000 1.000000 0.000000
v -0.980785 -1.000000 -0.195090
v -0.980785 1.000000 -0.195090
v -0.923880 -1.000000 -0.382683
v -0.923880 1.000000 -0.382683
v -0.831470 -1.000000 -0.555570
v -0.831470 1.000000 -0.555570
v -0.707107 -1.000000 -0.707107
v -0.707107 1.000000 -0.707107
v -0.555570 -1.000000 -0.831470
v -0.555570 1.000000 -0.831470
v -0.382683 -1.000000 -0.923880
v -0.382683 1.000000 -0.923880
v -0.195090 -1.000000 -0.980785
v -0.195090 1.000000 -0.980785
v -2.842844 1.932929 -1.701666
v 3.249969 2.136033 0.374382
v -2.800707 1.774994 -1.809880
v 3.292107 1.978097 0.266168
v -2.768646 1.597470 -1.886606
v 3.324167 1.800573 0.189443
v -2.747894 1.407179 -1.928893
v 3.344920 1.610283 0.147155
v -2.739248 1.211434 -1.935118
v 3.353566 1.414538 0.140930
v -2.743040 1.017758 -1.905041
v 3.349774 1.220862 0.171008
v -2.759125 0.833594 -1.839818
v 3.333689 1.036697 0.236231
v -2.786884 0.666018 -1.741955
v 3.305930 0.869121 0.334094
v -2.825251 0.521470 -1.615213
v 3.267562 0.724574 0.460835
v -2.872751 0.405506 -1.464463
v 3.220062 0.608610 0.611585
v -2.927560 0.322582 -1.295499
v 3.165254 0.525685 0.780550
v -2.987570 0.275884 -1.114812
v 3.105244 0.478988 0.961236
v -3.050475 0.267208 -0.929348
v 3.042338 0.470311 1.146700
v -3.113858 0.296886 -0.746233
v 2.978955 0.499989 1.329816
v -3.175284 0.363778 -0.572504
v 2.917529 0.566882 1.503545
v -3.232392 0.465314 -0.414837
v 2.860422 0.668417 1.661211
v -3.282986 0.597591 -0.279293
v 2.809827 0.800694 1.796756
v -3.325124 0.755526 -0.171078
v 2.767690 0.958630 1.904970
v -3.357185 0.933050 -0.094353
v 2.735629 1.136154 1.981695
v -3.377937 1.123341 -0.052066
v 2.714877 1.326444 2.023983
v -3.386583 1.319085 -0.045841
v 2.706230 1.522189 2.030208
v -3.382791 1.512761 -0.075918
v 2.710023 1.715865 2.000131
v -3.366706 1.696926 -0.141141
v 2.726107 1.900030 1.934907
v -3.338947 1.864502 -0.239004
v 2.753867 2.067606 1.837045
v -3.300580 2.009050 -0.365745
v 2.792234 2.212153 1.710303
v -3.253079 2.125014 -0.516495
v 2.839734 2.328117 1.559553
v -3.198271 2.207938 -0.685460
v 2.894542 2.411042 1.390589
v -3.138261 2.254636 -0.866146
v 2.954552 2.457739 1.209902
v -3.075356 2.263312 -1.051611
v 3.017458 2.466416 1.024438
v -3.011972 2.233634 -1.234726
v 3.080841 2.436738 0.841322
v -2.950546 2.166742 -1.408455
v 3.142267 2.369845 0.667594
v -2.893439 2.065206 -1.566121
v 3.199375 2.268310 0.509927
vt 1.000000 1.000000
vt 0.968750 0.500000
vt 1.000000 0.500000
vt 0.968750 1.000000
vt 0.937500 0.500000
vt 0.937500 1.000000
vt 0.906250 0.500000
vt 0.906250 1.000000
vt 0.875000 0.500000
vt 0.875000 1.000000
vt 0.843750 0.500000
vt 0.843750 1.000000
vt 0.812500 0.500000
vt 0.812500 1.000000
vt 0.781250 0.500000
vt 0.781250 1.000000
vt 0.750000 0.500000
vt 0.750000 1.000000
vt 0.718750 0.500000
vt 0.718750 1.000000
vt 0.687500 0.500000
vt 0.687500 1.000000
vt 0.656250 0.500000
vt 0.656250 1.000000
vt 0.625000 0.500000
vt 0.625000 1.000000
vt 0.593750 0.500000
vt 0.593750 1.000000
vt 0.562500 0.500000
vt 0.562500 1.000000
vt 0.531250 0.500000
vt 0.531250 1.000000
vt 0.500000 0.500000
vt 0.500000 1.000000
vt 0.468750 0.500000
vt 0.468750 1.000000
vt 0.437500 0.500000
vt 0.437500 1.000000
vt 0.406250 0.500000
vt 0.406250 1.000000
vt 0.375000 0.500000
vt 0.375000 1.000000
vt 0.343750 0.500000
vt 0.343750 1.000000
vt 0.312500 0.500000
vt 0.312500 1.000000
vt 0.281250 0.500000
vt 0.281250 1.000000
vt 0.250000 0.500000
vt 0.250000 1.000000
vt 0.218750 0.500000
vt 0.218750 1.000000
vt 0.187500 0.500000
vt 0.187500 1.000000
vt 0.156250 0.500000
vt 0.156250 1.000000
vt 0.125000 0.500000
vt 0.125000 1.000000
vt 0.093750 0.500000
vt 0.093750 1.000000
vt 0.062500 0.500000
vt 0.158156 0.028269
vt 0.471731 0.158156
vt 0.341844 0.471731
vt 0.062500 1.000000
vt 0.031250 0.500000
vt 0.031250 1.000000
vt 0.000000 0.500000
vt 0.796822 0.014612
vt 0.514612 0.203178
vt 0.703178 0.485388
vt 1.000000 1.000000
vt 0.968750 0.500000
vt 1.000000 0.500000
vt 0.968750 1.000000
vt 0.937500 0.500000
vt 0.937500 1.000000
vt 0.906250 0.500000
vt 0.906250 1.000000
vt 0.875000 0.500000
vt 0.843750 1.000000
vt 0.843750 0.500000
vt 0.812500 0.500000
vt 0.781250 1.000000
vt 0.781250 0.500000
vt 0.750000 0.500000
vt 0.750000 1.000000
vt 0.718750 0.500000
vt 0.718750 1.000000
vt 0.687500 0.500000
vt 0.656250 1.000000
vt 0.656250 0.500000
vt 0.625000 1.000000
vt 0.625000 0.500000
vt 0.593750 0.500000
vt 0.593750 1.000000
vt 0.562500 0.500000
vt 0.562500 1.000000
vt 0.531250 0.500000
vt 0.500000 1.000000
vt 0.500000 0.500000
vt 0.468750 0.500000
vt 0.468750 1.000000
vt 0.437500 0.500000
vt 0.437500 1.000000
vt 0.406250 0.500000
vt 0.406250 1.000000
vt 0.375000 0.500000
vt 0.343750 1.000000
vt 0.343750 0.500000
vt 0.312500 0.500000
vt 0.312500 1.000000
vt 0.281250 0.500000
vt 0.250000 1.000000
vt 0.250000 0.500000
vt 0.218750 0.500000
vt 0.187500 1.000000
vt 0.187500 0.500000
vt 0.156250 1.000000
vt 0.156250 0.500000
vt 0.125000 0.500000
vt 0.125000 1.000000
vt 0.093750 0.500000
vt 0.093750 1.000000
vt 0.062500 0.500000
vt 0.341844 0.471731
vt 0.028269 0.341844
vt 0.158156 0.028269
vt 0.031250 1.000000
vt 0.031250 0.500000
vt 0.000000 0.500000
vt 0.796822 0.014612
vt 0.514612 0.203178
vt 0.703178 0.485388
vt 0.296822 0.485388
vt 0.250000 0.490000
vt 0.203178 0.485388
vt 0.158156 0.471731
vt 0.116663 0.449553
vt 0.080294 0.419706
vt 0.050447 0.383337
vt 0.028269 0.341844
vt 0.014612 0.296822
vt 0.010000 0.250000
vt 0.014612 0.203178
vt 0.028269 0.158156
vt 0.050447 0.116663
vt 0.080294 0.080294
vt 0.116663 0.050447
vt 0.203178 0.014612
vt 0.341844 0.028269
vt 0.250000 0.010000
vt 0.296822 0.014612
vt 0.383337 0.050447
vt 0.419706 0.080294
vt 0.449553 0.116663
vt 0.485388 0.203178
vt 0.471731 0.341844
vt 0.490000 0.250000
vt 0.485388 0.296822
vt 0.449553 0.383337
vt 0.419706 0.419706
vt 0.383337 0.449553
vt 0.000000 1.000000
vt 0.750000 0.490000
vt 0.796822 0.485388
vt 0.841844 0.471731
vt 0.883337 0.449553
vt 0.919706 0.419706
vt 0.949553 0.383337
vt 0.971731 0.341844
vt 0.985388 0.296822
vt 0.990000 0.250000
vt 0.985388 0.203178
vt 0.971731 0.158156
vt 0.949553 0.116663
vt 0.919706 0.080294
vt 0.883337 0.050447
vt 0.841844 0.028269
vt 0.750000 0.010000
vt 0.703178 0.014612
vt 0.658156 0.028269
vt 0.616663 0.050447
vt 0.580294 0.080294
vt 0.550447 0.116663
vt 0.528269 0.158156
vt 0.510000 0.250000
vt 0.514612 0.296822
vt 0.528269 0.341844
vt 0.550447 0.383337
vt 0.580294 0.419706
vt 0.616663 0.449553
vt 0.658156 0.471731
vt 0.875000 1.000000
vt 0.812500 1.000000
vt 0.687500 1.000000
vt 0.531250 1.000000
vt 0.375000 1.000000
vt 0.281250 1.000000
vt 0.218750 1.000000
vt 0.062500 1.000000
vt 0.296822 0.485388
vt 0.250000 0.490000
vt 0.203178 0.485388
vt 0.158156 0.471731
vt 0.116663 0.449553
vt 0.080294 0.419706
vt 0.050447 0.383337
vt 0.014612 0.296822
vt 0.010000 0.250000
vt 0.014612 0.203178
vt 0.028269 0.158156
vt 0.050447 0.116663
vt 0.080294 0.080294
vt 0.116663 0.050447
vt 0.203178 0.014612
vt 0.250000 0.010000
vt 0.296822 0.014612
vt 0.341844 0.028269
vt 0.383337 0.050447
vt 0.419706 0.080294
vt 0.449553 0.116663
vt 0.471731 0.158156
vt 0.485388 0.203178
vt 0.471731 0.341844
vt 0.490000 0.250000
vt 0.485388 0.296822
vt 0.449553 0.383337
vt 0.419706 0.419706
vt 0.383337 0.449553
vt 0.000000 1.000000
vt 0.750000 0.490000
vt 0.796822 0.485388
vt 0.841844 0.471731
vt 0.883337 0.449553
vt 0.919706 0.419706
vt 0.949553 0.383337
vt 0.971731 0.341844
vt 0.985388 0.296822
vt 0.990000 0.250000
vt 0.985388 0.203178
vt 0.971731 0.158156
vt 0.949553 0.116663
vt 0.919706 0.080294
vt 0.883337 0.050447
vt 0.841844 0.028269
vt 0.750000 0.010000
vt 0.703178 0.014612
vt 0.658156 0.028269
vt 0.616663 0.050447
vt 0.580294 0.080294
vt 0.550447 0.116663
vt 0.528269 0.158156
vt 0.510000 0.250000
vt 0.514612 0.296822
vt 0.528269 0.341844
vt 0.550447 0.383337
vt 0.580294 0.419706
vt 0.616663 0.449553
vt 0.658156 0.471731
vn 0.0980 0.0000 -0.9952
vn 0.2903 0.0000 -0.9569
vn 0.4714 0.0000 -0.8819
vn 0.6344 0.0000 -0.7730
vn 0.7730 0.0000 -0.6344
vn 0.8819 0.0000 -0.4714
vn 0.9569 0.0000 -0.2903
vn 0.9952 0.0000 -0.0980
vn 0.9952 0.0000 0.0980
vn 0.9569 0.0000 0.2903
vn 0.8819 0.0000 0.4714
vn 0.7730 0.0000 0.6344
vn 0.6344 0.0000 0.7730
vn 0.4714 0.0000 0.8819
vn 0.2903 0.0000 0.9569
vn 0.0980 0.0000 0.9952
vn -0.0980 0.0000 0.9952
vn -0.2903 0.0000 0.9569
vn -0.4714 0.0000 0.8819
vn -0.6344 0.0000 0.7730
vn -0.7730 0.0000 0.6344
vn -0.8819 0.0000 0.4714
vn -0.9569 0.0000 0.2903
vn -0.9952 0.0000 0.0980
vn -0.9952 0.0000 -0.0980
vn -0.9569 0.0000 -0.2903
vn -0.8819 0.0000 -0.4714
vn -0.7730 0.0000 -0.6344
vn -0.6344 0.0000 -0.7730
vn -0.4714 0.0000 -0.8819
vn 0.0000 1.0000 0.0000
vn -0.2903 0.0000 -0.9569
vn -0.0980 0.0000 -0.9952
vn 0.0000 -1.0000 0.0000
vn 0.2423 0.5915 -0.7690
vn 0.2796 0.4230 -0.8619
vn 0.3061 0.2382 -0.9217
vn 0.3209 0.0443 -0.9461
vn 0.3233 -0.1514 -0.9341
vn 0.3133 -0.3412 -0.8862
vn 0.2913 -0.5179 -0.8043
vn 0.2581 -0.6748 -0.6914
vn 0.2149 -0.8057 -0.5520
vn 0.1635 -0.9056 -0.3914
vn 0.1059 -0.9707 -0.2157
vn 0.0441 -0.9985 -0.0318
vn -0.0193 -0.9880 0.1534
vn -0.0821 -0.9395 0.3327
vn -0.1416 -0.8548 0.4992
vn -0.1957 -0.7374 0.6465
vn -0.2423 -0.5915 0.7690
vn -0.2796 -0.4230 0.8619
vn -0.3061 -0.2382 0.9217
vn -0.3209 -0.0443 0.9461
vn -0.3233 0.1514 0.9341
vn -0.3133 0.3412 0.8862
vn -0.2913 0.5179 0.8043
vn -0.2581 0.6748 0.6914
vn -0.2149 0.8057 0.5520
vn -0.1635 0.9056 0.3914
vn -0.1059 0.9707 0.2157
vn -0.0441 0.9985 0.0318
vn 0.0193 0.9880 -0.1534
vn 0.0821 0.9395 -0.3327
vn 0.9461 0.0315 0.3224
vn 0.1416 0.8548 -0.4992
vn 0.1957 0.7374 -0.6465
vn -0.9461 -0.0315 -0.3224
vn -0.2423 -0.5916 0.7690
vn 0.9461 0.0316 0.3224
usemtl None
s off
f 2/1/1 3/2/1 1/3/1
f 4/4/2 5/5/2 3/2/2
f 6/6/3 7/7/3 5/5/3
f 8/8/4 9/9/4 7/7/4
f 10/10/5 11/11/5 9/9/5
f 12/12/6 13/13/6 11/11/6
f 14/14/7 15/15/7 13/13/7
f 16/16/8 17/17/8 15/15/8
f 18/18/9 19/19/9 17/17/9
f 20/20/10 21/21/10 19/19/10
f 22/22/11 23/23/11 21/21/11
f 24/24/12 25/25/12 23/23/12
f 26/26/13 27/27/13 25/25/13
f 28/28/14 29/29/14 27/27/14
f 30/30/15 31/31/15 29/29/15
f 32/32/16 33/33/16 31/31/16
f 34/34/17 35/35/17 33/33/17
f 36/36/18 37/37/18 35/35/18
f 38/38/19 39/39/19 37/37/19
f 40/40/20 41/41/20 39/39/20
f 42/42/21 43/43/21 41/41/21
f 44/44/22 45/45/22 43/43/22
f 46/46/23 47/47/23 45/45/23
f 48/48/24 49/49/24 47/47/24
f 50/50/25 51/51/25 49/49/25
f 52/52/26 53/53/26 51/51/26
f 54/54/27 55/55/27 53/53/27
f 56/56/28 57/57/28 55/55/28
f 58/58/29 59/59/29 57/57/29
f 60/60/30 61/61/30 59/59/30
f 38/62/31 22/63/31 6/64/31
f 62/65/32 63/66/32 61/61/32
f 64/67/33 1/68/33 63/66/33
f 31/69/34 47/70/34 63/71/34
f 66/72/35 67/73/35 65/74/35
f 68/75/36 69/76/36 67/73/36
f 70/77/37 71/78/37 69/76/37
f 72/79/38 73/80/38 71/78/38
f 73/80/39 76/81/39 75/82/39
f 76/81/40 77/83/40 75/82/40
f 77/83/41 80/84/41 79/85/41
f 80/84/42 81/86/42 79/85/42
f 82/87/43 83/88/43 81/86/43
f 84/89/44 85/90/44 83/88/44
f 85/90/45 88/91/45 87/92/45
f 87/92/46 90/93/46 89/94/46
f 90/93/47 91/95/47 89/94/47
f 92/96/48 93/97/48 91/95/48
f 94/98/49 95/99/49 93/97/49
f 95/99/50 98/100/50 97/101/50
f 98/100/51 99/102/51 97/101/51
f 100/103/52 101/104/52 99/102/52
f 102/105/53 103/106/53 101/104/53
f 104/107/54 105/108/54 103/106/54
f 105/108/55 108/109/55 107/110/55
f 108/109/56 109/111/56 107/110/56
f 110/112/57 111/113/57 109/111/57
f 111/113/58 114/114/58 113/115/58
f 114/114/59 115/116/59 113/115/59
f 115/116/60 118/117/60 117/118/60
f 117/118/61 120/119/61 119/120/61
f 120/119/62 121/121/62 119/120/62
f 122/122/63 123/123/63 121/121/63
f 124/124/64 125/125/64 123/123/64
f 70/126/65 118/127/65 102/128/65
f 125/125/66 128/129/66 127/130/66
f 128/129/67 65/131/67 127/130/67
f 95/132/68 111/133/68 127/134/68
f 2/1/1 4/4/1 3/2/1
f 4/4/2 6/6/2 5/5/2
f 6/6/3 8/8/3 7/7/3
f 8/8/4 10/10/4 9/9/4
f 10/10/5 12/12/5 11/11/5
f 12/12/6 14/14/6 13/13/6
f 14/14/7 16/16/7 15/15/7
f 16/16/8 18/18/8 17/17/8
f 18/18/9 20/20/9 19/19/9
f 20/20/10 22/22/10 21/21/10
f 22/22/11 24/24/11 23/23/11
f 24/24/12 26/26/12 25/25/12
f 26/26/13 28/28/13 27/27/13
f 28/28/14 30/30/14 29/29/14
f 30/30/15 32/32/15 31/31/15
f 32/32/16 34/34/16 33/33/16
f 34/34/17 36/36/17 35/35/17
f 36/36/18 38/38/18 37/37/18
f 38/38/19 40/40/19 39/39/19
f 40/40/20 42/42/20 41/41/20
f 42/42/21 44/44/21 43/43/21
f 44/44/22 46/46/22 45/45/22
f 46/46/23 48/48/23 47/47/23
f 48/48/24 50/50/24 49/49/24
f 50/50/25 52/52/25 51/51/25
f 52/52/26 54/54/26 53/53/26
f 54/54/27 56/56/27 55/55/27
f 56/56/28 58/58/28 57/57/28
f 58/58/29 60/60/29 59/59/29
f 60/60/30 62/65/30 61/61/30
f 6/64/31 4/135/31 2/136/31
f 2/136/31 64/137/31 6/64/31
f 64/137/31 62/138/31 6/64/31
f 62/138/31 60/139/31 58/140/31
f 58/140/31 56/141/31 54/142/31
f 54/142/31 52/143/31 50/144/31
f 50/144/31 48/145/31 54/142/31
f 48/145/31 46/146/31 54/142/31
f 46/146/31 44/147/31 42/148/31
f 42/148/31 40/149/31 38/62/31
f 38/62/31 36/150/31 30/151/31
f 36/150/31 34/152/31 30/151/31
f 34/152/31 32/153/31 30/151/31
f 30/151/31 28/154/31 26/155/31
f 26/155/31 24/156/31 22/63/31
f 22/63/31 20/157/31 14/158/31
f 20/157/31 18/159/31 14/158/31
f 18/159/31 16/160/31 14/158/31
f 14/158/31 12/161/31 10/162/31
f 10/162/31 8/163/31 6/64/31
f 62/138/31 58/140/31 6/64/31
f 58/140/31 54/142/31 6/64/31
f 46/146/31 42/148/31 54/142/31
f 42/148/31 38/62/31 54/142/31
f 30/151/31 26/155/31 38/62/31
f 26/155/31 22/63/31 38/62/31
f 14/158/31 10/162/31 22/63/31
f 10/162/31 6/64/31 22/63/31
f 6/64/31 54/142/31 38/62/31
f 62/65/32 64/67/32 63/66/32
f 64/67/33 2/164/33 1/68/33
f 63/71/34 1/165/34 3/166/34
f 3/166/34 5/167/34 7/168/34
f 7/168/34 9/169/34 11/170/34
f 11/170/34 13/171/34 15/172/34
f 15/172/34 17/173/34 19/174/34
f 19/174/34 21/175/34 23/176/34
f 23/176/34 25/177/34 27/178/34
f 27/178/34 29/179/34 31/69/34
f 31/69/34 33/180/34 35/181/34
f 35/181/34 37/182/34 39/183/34
f 39/183/34 41/184/34 43/185/34
f 43/185/34 45/186/34 47/70/34
f 47/70/34 49/187/34 51/188/34
f 51/188/34 53/189/34 55/190/34
f 55/190/34 57/191/34 59/192/34
f 59/192/34 61/193/34 63/71/34
f 63/71/34 3/166/34 15/172/34
f 3/166/34 7/168/34 15/172/34
f 7/168/34 11/170/34 15/172/34
f 15/172/34 19/174/34 31/69/34
f 19/174/34 23/176/34 31/69/34
f 23/176/34 27/178/34 31/69/34
f 31/69/34 35/181/34 47/70/34
f 35/181/34 39/183/34 47/70/34
f 39/183/34 43/185/34 47/70/34
f 47/70/34 51/188/34 63/71/34
f 51/188/34 55/190/34 63/71/34
f 55/190/34 59/192/34 63/71/34
f 63/71/34 15/172/34 31/69/34
f 66/72/35 68/75/35 67/73/35
f 68/75/36 70/77/36 69/76/36
f 70/77/37 72/79/37 71/78/37
f 72/79/38 74/194/38 73/80/38
f 73/80/39 74/194/39 76/81/39
f 76/81/40 78/195/40 77/83/40
f 77/83/41 78/195/41 80/84/41
f 80/84/42 82/87/42 81/86/42
f 82/87/43 84/89/43 83/88/43
f 84/89/44 86/196/44 85/90/44
f 85/90/45 86/196/45 88/91/45
f 87/92/46 88/91/46 90/93/46
f 90/93/47 92/96/47 91/95/47
f 92/96/48 94/98/48 93/97/48
f 94/98/49 96/197/49 95/99/49
f 95/99/50 96/197/50 98/100/50
f 98/100/69 100/103/69 99/102/69
f 100/103/52 102/105/52 101/104/52
f 102/105/53 104/107/53 103/106/53
f 104/107/54 106/198/54 105/108/54
f 105/108/55 106/198/55 108/109/55
f 108/109/56 110/112/56 109/111/56
f 110/112/57 112/199/57 111/113/57
f 111/113/58 112/199/58 114/114/58
f 114/114/59 116/200/59 115/116/59
f 115/116/60 116/200/60 118/117/60
f 117/118/61 118/117/61 120/119/61
f 120/119/62 122/122/62 121/121/62
f 122/122/63 124/124/63 123/123/63
f 124/124/64 126/201/64 125/125/64
f 70/126/65 68/202/65 66/203/65
f 66/203/65 128/204/65 70/126/65
f 128/204/65 126/205/65 70/126/65
f 126/205/65 124/206/65 118/127/65
f 124/206/65 122/207/65 118/127/65
f 122/207/65 120/208/65 118/127/65
f 118/127/65 116/209/65 114/210/65
f 114/210/65 112/211/65 110/212/65
f 110/212/65 108/213/65 106/214/65
f 106/214/65 104/215/65 102/128/65
f 102/128/65 100/216/65 98/217/65
f 98/217/65 96/218/65 102/128/65
f 96/218/65 94/219/65 102/128/65
f 94/219/70 92/220/70 90/221/70
f 90/221/65 88/222/65 94/219/65
f 88/222/65 86/223/65 94/219/65
f 86/223/65 84/224/65 78/225/65
f 84/224/65 82/226/65 78/225/65
f 82/226/65 80/227/65 78/225/65
f 78/225/65 76/228/65 70/126/65
f 76/228/65 74/229/65 70/126/65
f 74/229/65 72/230/65 70/126/65
f 118/127/65 114/210/65 102/128/65
f 114/210/65 110/212/65 102/128/65
f 110/212/65 106/214/65 102/128/65
f 70/126/65 126/205/65 118/127/65
f 102/128/65 94/219/65 70/126/65
f 94/219/65 86/223/65 70/126/65
f 86/223/65 78/225/65 70/126/65
f 125/125/66 126/201/66 128/129/66
f 128/129/67 66/231/67 65/131/67
f 127/134/68 65/232/68 67/233/68
f 67/233/68 69/234/68 71/235/68
f 71/235/68 73/236/68 75/237/68
f 75/237/68 77/238/68 79/239/68
f 79/239/68 81/240/68 83/241/68
f 83/241/68 85/242/68 87/243/68
f 87/243/68 89/244/68 91/245/68
f 91/245/68 93/246/68 87/243/68
f 93/246/68 95/132/68 87/243/68
f 95/132/68 97/247/68 99/248/68
f 99/248/68 101/249/68 95/132/68
f 101/249/68 103/250/68 95/132/68
f 103/250/68 105/251/68 107/252/68
f 107/252/68 109/253/68 111/133/68
f 111/133/68 113/254/68 115/255/68
f 115/255/68 117/256/68 119/257/68
f 119/257/68 121/258/68 123/259/68
f 123/259/68 125/260/68 119/257/68
f 125/260/68 127/134/68 119/257/68
f 127/134/68 67/233/68 71/235/68
f 71/235/68 75/237/68 127/134/68
f 75/237/68 79/239/68 127/134/68
f 79/239/68 83/241/68 95/132/68
f 83/241/68 87/243/68 95/132/68
f 103/250/68 107/252/68 95/132/68
f 107/252/68 111/133/68 95/132/68
f 111/133/68 115/255/68 127/134/68
f 115/255/68 119/257/68 127/134/68
f 127/134/68 79/239/68 95/132/68
